<svg xmlns="http://www.w3.org/2000/svg" width="140" height="28" viewBox="0 0 140 28" fill="none">
  <path d="M12.123 0L0 7L12.123 14L22.7314 7.87379V20.1262L13.6408 25.3754V27.1262L24.2492 21V7L22.7314 6.12621L12.123 12.2492L3.03236 7L13.6408 0.873786L12.123 0Z" fill="#18181B"/>
  <path d="M15.1554 1.7508L6.06152 6.99999L12.123 10.5016L21.2169 5.24918L15.1554 1.7508Z" fill="#18181B"/>
  <path d="M0 8.7508V21L12.123 28L12.0615 15.7508L10.6084 14.877V25.3754L1.51456 20.1262V9.62459L0 8.7508Z" fill="#18181B"/>
  <path d="M21.2167 10.5016L13.6406 14.877V23.6246L21.2167 19.2524V10.5016Z" fill="#18181B"/>
  <path d="M3.03223 10.5016V19.2524L9.09372 22.7508V14L3.03223 10.5016Z" fill="#18181B"/>
  <path d="M46.2143 2.69495V3.64285H44.3262V9.78307H43.1634V3.64669H41.2676V2.69879H46.2143V2.69495Z" fill="#18181B"/>
  <path d="M53.5372 8.34012H50.5669L50.0564 9.78691H48.8438L51.3843 2.68728H52.7313L55.2718 9.78691H54.0476L53.5372 8.34012ZM53.211 7.38839L52.0597 4.09185L50.8969 7.38839H53.211Z" fill="#18181B"/>
  <path d="M62.4401 9.78693L60.8091 6.95092H59.9226V9.78693H58.7598V2.69498H61.2082C61.7531 2.69498 62.2136 2.79092 62.5897 2.97896C62.9658 3.17084 63.2498 3.42413 63.4378 3.74265C63.6259 4.06118 63.718 4.41808 63.718 4.81335C63.718 5.27771 63.5837 5.69601 63.315 6.0721C63.0464 6.44819 62.6319 6.70531 62.0755 6.84346L63.8293 9.78309H62.4401V9.78693ZM59.9187 6.02221H61.2043C61.638 6.02221 61.968 5.91476 62.1906 5.69601C62.4132 5.47726 62.5207 5.1856 62.5207 4.81719C62.5207 4.44878 62.4132 4.16095 62.1945 3.95372C61.9757 3.74649 61.6457 3.64287 61.2043 3.64287H59.9187V6.01837V6.02221Z" fill="#18181B"/>
  <path d="M85.7077 8.84669H88.1062V9.78691H84.5449V2.69495H85.7077V8.84669Z" fill="#18181B"/>
  <path d="M92.7878 3.63518V5.71518H95.2362V6.66307H92.7878V8.83518H95.5432V9.78307H91.625V2.68728H95.5432V3.63518H92.7878Z" fill="#18181B"/>
  <path d="M37.3345 3.79252C36.8433 3.60448 36.3098 3.51621 35.8071 3.51621C35.1854 3.51621 34.5368 3.73496 34.5368 4.43341C34.5368 4.98603 34.9206 5.26234 35.9376 5.6768C37.181 6.17953 37.9178 6.68226 37.9178 7.84507C37.9178 9.2458 36.7051 9.85599 35.431 9.85599C34.8016 9.85599 33.9996 9.73702 33.3203 9.46071L33.5582 8.50514C34.1991 8.79296 34.8899 8.9196 35.4118 8.9196C36.2292 8.9196 36.7742 8.59341 36.7742 7.92182C36.7742 7.31163 36.2408 6.99311 35.2353 6.59016C34.0725 6.11813 33.3817 5.53481 33.3817 4.52935C33.3817 3.1478 34.6328 2.57599 35.7687 2.57599C36.4211 2.57599 37.0505 2.66425 37.5647 2.8523L37.3383 3.78868L37.3345 3.79252Z" fill="#18181B"/>
  <path d="M72.1069 2.69495V3.64285H70.2188V9.78307H69.056V3.64669H67.1602V2.69879H72.1069V2.69495Z" fill="#18181B"/>
  <path d="M79.4298 8.34012H76.4594L75.949 9.78691H74.7363L77.2768 2.68728H78.6239L81.1644 9.78691H79.9402L79.4298 8.34012ZM79.1036 7.38839L77.9523 4.09185L76.7895 7.38839H79.1036Z" fill="#18181B"/>
  <path d="M138.145 17.6218L137.76 18.882C137.048 18.5707 136.351 18.4669 135.729 18.4669C135.091 18.4669 134.454 18.7041 134.454 19.3416C134.454 19.8902 134.824 20.1423 136.025 20.5574C137.597 21.0912 138.546 21.7139 138.546 23.0631C138.546 24.7829 136.974 25.3611 135.491 25.3611C134.617 25.3611 133.52 25.1684 132.704 24.8126L133.075 23.5079C133.92 23.8785 134.869 24.0713 135.506 24.0713C136.351 24.0713 136.944 23.834 136.944 23.152C136.944 22.559 136.396 22.2624 135.165 21.8473C133.609 21.3136 132.852 20.6019 132.852 19.5047C132.852 17.8887 134.305 17.177 135.743 17.177C136.559 17.177 137.463 17.3253 138.145 17.6218Z" fill="#18181B"/>
  <path d="M131.537 20.9516C131.537 21.2542 131.517 21.5275 131.478 21.7716H125.314C125.363 22.4158 125.602 22.9332 126.031 23.3237C126.461 23.7141 126.988 23.9094 127.613 23.9094C128.511 23.9094 129.145 23.5336 129.516 22.7819H131.317C131.073 23.5238 130.629 24.1339 129.985 24.6122C129.35 25.0808 128.559 25.315 127.613 25.315C126.841 25.315 126.148 25.1442 125.533 24.8026C124.928 24.4511 124.45 23.9631 124.098 23.3383C123.757 22.7038 123.586 21.9717 123.586 21.142C123.586 20.3122 123.752 19.585 124.084 18.9602C124.425 18.3257 124.899 17.8377 125.504 17.496C126.119 17.1543 126.822 16.9835 127.613 16.9835C128.374 16.9835 129.052 17.1495 129.648 17.4814C130.243 17.8133 130.707 18.2818 131.039 18.887C131.371 19.4825 131.537 20.1707 131.537 20.9516ZM129.794 20.4245C129.785 19.8095 129.565 19.3165 129.135 18.9456C128.706 18.5747 128.174 18.3892 127.539 18.3892C126.963 18.3892 126.47 18.5747 126.06 18.9456C125.651 19.3068 125.406 19.7997 125.328 20.4245H129.794Z" fill="#18181B"/>
  <path d="M114.807 21.142C114.807 20.3122 114.973 19.585 115.304 18.9602C115.646 18.3257 116.115 17.8377 116.71 17.496C117.306 17.1543 117.989 16.9835 118.76 16.9835C119.736 16.9835 120.542 17.2178 121.176 17.6864C121.82 18.1451 122.255 18.8041 122.479 19.6631H120.678C120.532 19.2629 120.298 18.9505 119.975 18.726C119.653 18.5014 119.248 18.3892 118.76 18.3892C118.077 18.3892 117.53 18.6332 117.12 19.1213C116.72 19.5996 116.52 20.2732 116.52 21.142C116.52 22.0107 116.72 22.6892 117.12 23.1773C117.53 23.6653 118.077 23.9094 118.76 23.9094C119.726 23.9094 120.366 23.4847 120.678 22.6355H122.479C122.245 23.4555 121.806 24.1095 121.161 24.5976C120.517 25.0759 119.717 25.315 118.76 25.315C117.989 25.315 117.306 25.1442 116.71 24.8026C116.115 24.4511 115.646 23.9631 115.304 23.3383C114.973 22.7038 114.807 21.9717 114.807 21.142Z" fill="#18181B"/>
  <path d="M112.352 16.0464C112.049 16.0464 111.796 15.9439 111.591 15.7389C111.386 15.5339 111.283 15.2801 111.283 14.9775C111.283 14.6749 111.386 14.4211 111.591 14.2161C111.796 14.0111 112.049 13.9086 112.352 13.9086C112.645 13.9086 112.894 14.0111 113.099 14.2161C113.304 14.4211 113.406 14.6749 113.406 14.9775C113.406 15.2801 113.304 15.5339 113.099 15.7389C112.894 15.9439 112.645 16.0464 112.352 16.0464ZM113.172 17.1153V25.1832H111.503V17.1153H113.172Z" fill="#18181B"/>
  <path d="M106.185 23.6897L108.469 17.1153H110.241L107.166 25.1832H105.175L102.114 17.1153H103.901L106.185 23.6897Z" fill="#18181B"/>
  <path d="M99.1155 18.2867C99.3596 17.8767 99.6817 17.5594 100.082 17.3349C100.492 17.1006 100.975 16.9835 101.532 16.9835V18.7113H101.107C100.453 18.7113 99.955 18.8772 99.6134 19.2091C99.2815 19.541 99.1155 20.117 99.1155 20.9369V25.1832H97.4463V17.1153H99.1155V18.2867Z" fill="#18181B"/>
  <path d="M95.8034 20.9516C95.8034 21.2542 95.7838 21.5275 95.7448 21.7716H89.5803C89.6291 22.4158 89.8683 22.9332 90.2978 23.3237C90.7273 23.7141 91.2545 23.9094 91.8792 23.9094C92.7773 23.9094 93.4118 23.5336 93.7827 22.7819H95.5837C95.3397 23.5238 94.8955 24.1339 94.2513 24.6122C93.6168 25.0808 92.8261 25.315 91.8792 25.315C91.108 25.315 90.415 25.1442 89.8 24.8026C89.1948 24.4511 88.7164 23.9631 88.365 23.3383C88.0234 22.7038 87.8525 21.9717 87.8525 21.142C87.8525 20.3122 88.0185 19.585 88.3504 18.9602C88.692 18.3257 89.1655 17.8377 89.7707 17.496C90.3857 17.1543 91.0885 16.9835 91.8792 16.9835C92.6406 16.9835 93.319 17.1495 93.9145 17.4814C94.5099 17.8133 94.9736 18.2818 95.3055 18.887C95.6374 19.4825 95.8034 20.1707 95.8034 20.9516ZM94.0609 20.4245C94.0512 19.8095 93.8315 19.3165 93.402 18.9456C92.9725 18.5747 92.4405 18.3892 91.806 18.3892C91.2301 18.3892 90.7371 18.5747 90.3271 18.9456C89.9171 19.3068 89.6731 19.7997 89.595 20.4245H94.0609Z" fill="#18181B"/>
  <path d="M86.1439 14.9628L85.8071 16.3539C85.075 16.0757 84.2843 15.9439 83.5375 15.9439C82.6151 15.9439 81.6487 16.266 81.6487 17.3056C81.6487 18.1256 82.2197 18.5356 83.7279 19.1506C85.5728 19.8973 86.671 20.6441 86.671 22.3719C86.671 24.4511 84.87 25.3589 82.9811 25.3589C82.044 25.3589 80.858 25.1832 79.8477 24.7732L80.1991 23.3529C81.1508 23.7776 82.1758 23.9679 82.9518 23.9679C84.1672 23.9679 84.9725 23.4847 84.9725 22.489C84.9725 21.5812 84.1818 21.1126 82.6883 20.5123C80.9605 19.8095 79.9355 18.9456 79.9355 17.452C79.9355 15.4021 81.7951 14.5528 83.479 14.5528C84.4454 14.5528 85.3825 14.6846 86.1439 14.9628Z" fill="#18181B"/>
  <path d="M66.3184 21.1126C66.3184 20.3024 66.4843 19.5849 66.8162 18.9602C67.1579 18.3355 67.6167 17.8523 68.1926 17.5106C68.7783 17.1592 69.4274 16.9835 70.14 16.9835C70.6672 16.9835 71.1845 17.1006 71.6921 17.3349C72.2095 17.5594 72.6195 17.862 72.9221 18.2427V14.3478H74.606V25.1832H72.9221V23.9679C72.6488 24.3584 72.2681 24.6805 71.78 24.9343C71.3017 25.1881 70.7501 25.315 70.1254 25.315C69.4225 25.315 68.7783 25.1393 68.1926 24.7879C67.6167 24.4267 67.1579 23.9289 66.8162 23.2944C66.4843 22.6501 66.3184 21.9228 66.3184 21.1126ZM72.9221 21.1419C72.9221 20.5855 72.8049 20.1023 72.5707 19.6923C72.3461 19.2823 72.0484 18.97 71.6775 18.7552C71.3065 18.5405 70.9063 18.4331 70.4768 18.4331C70.0473 18.4331 69.6471 18.5405 69.2761 18.7552C68.9052 18.9602 68.6026 19.2677 68.3683 19.6777C68.1438 20.0779 68.0315 20.5562 68.0315 21.1126C68.0315 21.669 68.1438 22.1571 68.3683 22.5769C68.6026 22.9966 68.9052 23.3188 69.2761 23.5433C69.6568 23.758 70.0571 23.8654 70.4768 23.8654C70.9063 23.8654 71.3065 23.758 71.6775 23.5433C72.0484 23.3285 72.3461 23.0161 72.5707 22.6062C72.8049 22.1864 72.9221 21.6983 72.9221 21.1419Z" fill="#18181B"/>
  <path d="M64.6718 17.1153V25.1832H63.0025V24.2315C62.739 24.5634 62.3924 24.8269 61.9629 25.0222C61.5432 25.2076 61.0941 25.3004 60.6158 25.3004C59.9813 25.3004 59.4103 25.1686 58.9027 24.905C58.4048 24.6415 58.0095 24.251 57.7166 23.7336C57.4335 23.2163 57.292 22.5915 57.292 21.8594V17.1153H58.9466V21.6105C58.9466 22.3328 59.1272 22.8892 59.4884 23.2797C59.8495 23.6604 60.3425 23.8508 60.9672 23.8508C61.592 23.8508 62.0849 23.6604 62.4461 23.2797C62.8171 22.8892 63.0025 22.3328 63.0025 21.6105V17.1153H64.6718Z" fill="#18181B"/>
  <path d="M51.5276 25.315C50.7662 25.315 50.078 25.1442 49.4631 24.8025C48.8481 24.4511 48.3649 23.963 48.0135 23.3383C47.662 22.7038 47.4863 21.9717 47.4863 21.1419C47.4863 20.3219 47.6669 19.5947 48.0281 18.9602C48.3893 18.3257 48.8822 17.8376 49.507 17.496C50.1317 17.1543 50.8297 16.9835 51.6008 16.9835C52.372 16.9835 53.07 17.1543 53.6947 17.496C54.3194 17.8376 54.8124 18.3257 55.1736 18.9602C55.5348 19.5947 55.7154 20.3219 55.7154 21.1419C55.7154 21.9619 55.5299 22.6891 55.1589 23.3236C54.788 23.9581 54.2804 24.4511 53.6361 24.8025C53.0016 25.1442 52.2988 25.315 51.5276 25.315ZM51.5276 23.8654C51.9571 23.8654 52.3574 23.7629 52.7283 23.5579C53.109 23.3529 53.4165 23.0454 53.6508 22.6354C53.8851 22.2255 54.0022 21.7276 54.0022 21.1419C54.0022 20.5562 53.8899 20.0633 53.6654 19.663C53.4409 19.2531 53.1432 18.9456 52.7722 18.7406C52.4013 18.5356 52.0011 18.4331 51.5716 18.4331C51.142 18.4331 50.7418 18.5356 50.3709 18.7406C50.0097 18.9456 49.7217 19.2531 49.507 19.663C49.2922 20.0633 49.1848 20.5562 49.1848 21.1419C49.1848 22.0107 49.4045 22.6843 49.8438 23.1626C50.2928 23.6311 50.8541 23.8654 51.5276 23.8654Z" fill="#18181B"/>
  <path d="M45.8362 14.3478V25.1832H44.167V14.3478H45.8362Z" fill="#18181B"/>
  <path d="M32.2861 20.073C32.2861 19.0773 32.5155 18.1842 32.9743 17.3935C33.4429 16.6028 34.0725 15.9878 34.8632 15.5485C35.6636 15.0995 36.5373 14.875 37.4842 14.875C38.5677 14.875 39.5292 15.1434 40.3687 15.6803C41.218 16.2074 41.833 16.9591 42.2137 17.9352H40.2077C39.9441 17.3984 39.578 16.9981 39.1095 16.7346C38.6409 16.471 38.0992 16.3392 37.4842 16.3392C36.8106 16.3392 36.2103 16.4905 35.6832 16.7931C35.156 17.0957 34.7412 17.5301 34.4386 18.0963C34.1457 18.6625 33.9993 19.3214 33.9993 20.073C33.9993 20.8247 34.1457 21.4836 34.4386 22.0498C34.7412 22.6159 35.156 23.0552 35.6832 23.3676C36.2103 23.6702 36.8106 23.8215 37.4842 23.8215C38.0992 23.8215 38.6409 23.6897 39.1095 23.4261C39.578 23.1626 39.9441 22.7623 40.2077 22.2255H42.2137C41.833 23.2016 41.218 23.9533 40.3687 24.4804C39.5292 25.0075 38.5677 25.2711 37.4842 25.2711C36.5275 25.2711 35.6539 25.0514 34.8632 24.6122C34.0725 24.1631 33.4429 23.5433 32.9743 22.7526C32.5155 21.9619 32.2861 21.0687 32.2861 20.073Z" fill="#18181B"/>
</svg>